# xmcd CD database file
#
# Track frame offsets:
#	150
#	3045
#	26955
#	53272
#	56832
#	83455
#	106925
#	127535
#	156742
#	175840
#	195902
#
# Disc length: 3034 seconds
#
# Revision: 0
# Processed by: cddbd v1.5.1PL2 Copyright (c) Steve Scherf et al.
# Submitted via: CDex 1.51
#
DISCID=760bd80b
DTITLE=White, Dr. Michael - New Orleans Jazz is alive in 2000
DYEAR=2000
DGENRE=Jazz
TTITLE0=Intro
TTITLE1=Sheik of Araby
TTITLE2=Independence Blues
TTITLE3=History of Hall
TTITLE4=Over The Waves
TTITLE5=Dr. Jazz
TTITLE6=Who's sorry now
TTITLE7=Panama
TTITLE8=Red Wing
TTITLE9=Some of these days
TTITLE10=Saints go marching in
EXTD=YEAR: 2000
EXTT0=
EXTT1=
EXTT2=
EXTT3=
EXTT4=
EXTT5=
EXTT6=
EXTT7=
EXTT8=
EXTT9=
EXTT10=
PLAYORDER=
